<svg width="24" height="24" viewBox="0 0 24 24" fill="none" xmlns="http://www.w3.org/2000/svg">
<path d="M8.6779 21C8.51098 21 8.34542 20.9389 8.21514 20.8168C7.941 20.5617 7.92743 20.1315 8.18257 19.8573L13.8036 13.8455C14.4428 13.2063 14.7848 12.3798 14.7848 11.4991C14.7848 10.6183 14.4428 9.79184 13.8199 9.16894L8.18257 3.14213C7.92743 2.868 7.941 2.4378 8.21514 2.18267C8.48791 1.9289 8.9181 1.93975 9.17459 2.21389L14.7956 8.22577C15.6587 9.08887 16.1432 10.256 16.1432 11.4991C16.1432 12.7421 15.6587 13.9092 14.7807 14.7886L9.17595 20.7842C9.0416 20.9267 8.86111 20.9986 8.68061 20.9986L8.6779 21Z" fill="#FFFFFF"/>
</svg>
