<svg width="24" height="24" viewBox="0 0 24 24" fill="none" xmlns="http://www.w3.org/2000/svg">
<path d="M15.4636 20.9986C15.2831 20.9986 15.1012 20.9267 14.9683 20.7842L9.34751 14.7727C8.48445 13.9096 8 12.7426 8 11.4996C8 10.2565 8.48445 9.08951 9.36244 8.21017L14.9669 2.21489C15.222 1.93942 15.6522 1.92856 15.9263 2.18368C16.2004 2.4388 16.214 2.86897 15.9589 3.14309L10.3381 9.15465C9.69898 9.7938 9.35701 10.6202 9.35701 11.5009C9.35701 12.3816 9.69898 13.208 10.3218 13.8309L15.9589 19.8574C16.214 20.1315 16.2004 20.5617 15.9263 20.8168C15.796 20.9389 15.6291 20.9986 15.4636 20.9986Z" fill="#FFFFFF"/>
</svg>
