<svg width="24" height="24" viewBox="0 0 24 24" fill="none" xmlns="http://www.w3.org/2000/svg">
<path d="M18.4375 3.58333H17.25V2.39583C17.25 2.17733 17.0727 2 16.8542 2C16.6357 2 16.4583 2.17733 16.4583 2.39583V3.58333H8.54167V2.39583C8.54167 2.17733 8.36433 2 8.14583 2C7.92733 2 7.75 2.17733 7.75 2.39583V3.58333H6.5625C4.59838 3.58333 3 5.18171 3 7.14583V17.4375C3 19.4016 4.59838 21 6.5625 21H18.4375C20.4016 21 22 19.4016 22 17.4375V7.14583C22 5.18171 20.4016 3.58333 18.4375 3.58333ZM6.5625 4.375H18.4375C19.9654 4.375 21.2083 5.61792 21.2083 7.14583V8.33333H3.79167V7.14583C3.79167 5.61792 5.03458 4.375 6.5625 4.375ZM18.4375 20.2083H6.5625C5.03458 20.2083 3.79167 18.9654 3.79167 17.4375V9.125H21.2083V17.4375C21.2083 18.9654 19.9654 20.2083 18.4375 20.2083ZM18.0417 12.6875C18.0417 12.906 17.8643 13.0833 17.6458 13.0833H7.35417C7.13567 13.0833 6.95833 12.906 6.95833 12.6875C6.95833 12.469 7.13567 12.2917 7.35417 12.2917H17.6458C17.8643 12.2917 18.0417 12.469 18.0417 12.6875ZM12.5 16.6458C12.5 16.8643 12.3227 17.0417 12.1042 17.0417H7.35417C7.13567 17.0417 6.95833 16.8643 6.95833 16.6458C6.95833 16.4273 7.13567 16.25 7.35417 16.25H12.1042C12.3227 16.25 12.5 16.4273 12.5 16.6458Z" fill="#2C2C2C"/>
</svg>
