<svg width="24" height="24" viewBox="0 0 24 24" fill="none" xmlns="http://www.w3.org/2000/svg">
<g clip-path="url(#clip0_163_43)">
<path d="M11.5 22C6.26154 22 2 17.7385 2 12.5C2 7.26154 6.26154 3 11.5 3C16.7385 3 21 7.26154 21 12.5C21 17.7385 16.7385 22 11.5 22ZM11.5 3.79167C6.69854 3.79167 2.79167 7.69854 2.79167 12.5C2.79167 17.3015 6.69854 21.2083 11.5 21.2083C16.3015 21.2083 20.2083 17.3015 20.2083 12.5C20.2083 7.69854 16.3015 3.79167 11.5 3.79167ZM13.7167 16.3792C13.8916 16.2478 13.9273 16 13.7966 15.825L11.5008 12.7636V7.35417C11.5008 7.13567 11.3235 6.95833 11.105 6.95833C10.8865 6.95833 10.7091 7.13567 10.7091 7.35417V12.8958C10.7091 12.9813 10.7368 13.0645 10.7883 13.1333L13.1633 16.3C13.2417 16.4037 13.3604 16.4583 13.48 16.4583C13.5623 16.4583 13.6454 16.4322 13.7167 16.3792Z" fill="#226254"/>
</g>
<defs>
<clipPath id="clip0_163_43">
<rect width="19" height="19" fill="white" transform="translate(2 3)"/>
</clipPath>
</defs>
</svg>
