<svg width="24" height="24" viewBox="0 0 24 24" fill="none" xmlns="http://www.w3.org/2000/svg">
<path d="M11.9375 2.4375C10.0586 2.4375 8.22185 2.99467 6.65959 4.03854C5.09732 5.08241 3.87968 6.56611 3.16065 8.30201C2.44162 10.0379 2.25348 11.948 2.62004 13.7909C2.9866 15.6337 3.89139 17.3264 5.21999 18.655C6.54859 19.9836 8.24133 20.8884 10.0841 21.255C11.927 21.6215 13.8371 21.4334 15.573 20.7144C17.3089 19.9953 18.7926 18.7777 19.8365 17.2154C20.8803 15.6531 21.4375 13.8164 21.4375 11.9375C21.4345 9.41885 20.4327 7.00421 18.6517 5.22325C16.8708 3.4423 14.4562 2.44046 11.9375 2.4375ZM19.1715 16.1678H15.839L14.8629 14.8248L16.1007 11.2185L17.6841 10.7053L20.2863 12.7012C20.1751 13.9249 19.7944 15.1087 19.1715 16.1678ZM8.03598 16.1678H4.70353C4.0813 15.1085 3.70121 13.9247 3.59054 12.7012L6.1928 10.7053L7.77613 11.2185L9.01206 14.8248L8.03598 16.1678ZM4.76594 7.59917L5.44025 9.87265L3.5775 11.3014C3.67616 9.99085 4.08339 8.72225 4.76594 7.59917ZM10.0338 14.3591L8.87794 10.9931L11.9375 8.89005L14.9971 10.9931L13.8412 14.3591H10.0338ZM18.4338 9.87265L19.1091 7.59917C19.7913 8.72233 20.1982 9.99093 20.2966 11.3014L18.4338 9.87265ZM18.2792 6.46196L17.3395 9.64166L15.7561 10.1567L12.4963 7.92142V6.27103L15.3743 4.29279C16.4888 4.79606 17.4801 5.53631 18.2792 6.46196ZM14.0722 3.83456L11.9375 5.29868L9.8028 3.83456C11.2022 3.46699 12.6728 3.46699 14.0722 3.83456ZM8.50167 4.29186L11.3787 6.27103V7.91769L8.11888 10.153L6.53554 9.63794L5.59579 6.46196C6.39527 5.53609 7.3869 4.79554 8.50167 4.29186ZM5.48775 17.2854H7.92608L8.78201 19.707C7.50159 19.1828 6.37012 18.3511 5.48775 17.2854ZM10.1148 20.1196L8.94593 16.817L9.92015 15.4767H13.9549L14.9291 16.817L13.7602 20.1196C12.5597 20.3866 11.3153 20.3866 10.1148 20.1196ZM15.093 19.7023L15.9489 17.2808H18.3873C17.5049 18.3465 16.3734 19.1782 15.093 19.7023Z" fill="#2C2C2C"/>
</svg>
