<svg width="24" height="24" viewBox="0 0 24 24" fill="none" xmlns="http://www.w3.org/2000/svg">
<path d="M12.5 4.82609C10.3001 4.82609 8.10274 4.66996 5.92435 4.35852L3.41304 4H3V19.6957H3.41304L5.92435 19.3371C8.10241 19.0259 10.2998 18.8696 12.5 18.8696M12.5 4.82609C14.6999 4.82609 16.8973 4.66996 19.0757 4.35852L21.587 4H22V19.6957H21.587L19.0757 19.3371C16.8976 19.0259 14.7002 18.8696 12.5 18.8696M12.5 4.82609V9.36957M12.5 18.8696V14.3261M12.5 9.36957C13.1573 9.36957 13.7876 9.63067 14.2524 10.0954C14.7172 10.5602 14.9783 11.1906 14.9783 11.8478C14.9783 12.5051 14.7172 13.1355 14.2524 13.6002C13.7876 14.065 13.1573 14.3261 12.5 14.3261M12.5 9.36957C11.8427 9.36957 11.2124 9.63067 10.7476 10.0954C10.2828 10.5602 10.0217 11.1906 10.0217 11.8478C10.0217 12.5051 10.2828 13.1355 10.7476 13.6002C11.2124 14.065 11.8427 14.3261 12.5 14.3261M3 8.13043H3.41304C4.39896 8.13043 5.34449 8.52209 6.04164 9.21923C6.73878 9.91638 7.13043 10.8619 7.13043 11.8478C7.13043 12.8337 6.73878 13.7793 6.04164 14.4764C5.34449 15.1736 4.39896 15.5652 3.41304 15.5652H3M22 15.5652H21.587C20.601 15.5652 19.6555 15.1736 18.9584 14.4764C18.2612 13.7793 17.8696 12.8337 17.8696 11.8478C17.8696 10.8619 18.2612 9.91638 18.9584 9.21923C19.6555 8.52209 20.601 8.13043 21.587 8.13043H22" stroke="#2C2C2C"/>
</svg>
