<svg width="24" height="24" viewBox="0 0 24 24" fill="none" xmlns="http://www.w3.org/2000/svg">
<g clip-path="url(#clip0_163_44)">
<path d="M8.66654 12C6.82821 12 5.33321 13.495 5.33321 15.3333C5.33321 17.1717 6.82821 18.6667 8.66654 18.6667C10.5049 18.6667 11.9999 17.1717 11.9999 15.3333C11.9999 13.495 10.5049 12 8.66654 12ZM8.66654 17.8333C7.28821 17.8333 6.16654 16.7117 6.16654 15.3333C6.16654 13.955 7.28821 12.8333 8.66654 12.8333C10.0449 12.8333 11.1665 13.955 11.1665 15.3333C11.1665 16.7117 10.0449 17.8333 8.66654 17.8333ZM19.9165 8.66667H8.87071C5.28404 8.66667 2.27404 11.3725 2.01821 14.8275C1.86654 16.8775 2.64321 18.8492 4.14904 20.2375C5.39237 21.3825 6.99737 21.9992 8.67237 21.9992C9.02654 21.9992 9.38321 21.9725 9.73987 21.9158C11.8282 21.5883 13.7132 20.1642 14.6599 18.1975C15.1015 17.2783 15.3282 16.325 15.3332 15.3633C15.3357 14.7333 15.7499 14.2133 16.3399 14.0992L19.904 13.4058C21.2165 13.15 21.9999 12.3558 21.9999 11.2808V10.75C21.9999 9.60167 21.0649 8.66667 19.9165 8.66667ZM21.1665 11.2808C21.1665 11.945 20.6615 12.4092 19.7449 12.5875L16.1815 13.2808C15.1965 13.4717 14.5049 14.3275 14.4999 15.36C14.4957 16.1967 14.2974 17.03 13.909 17.8367C13.0799 19.56 11.4332 20.8075 9.61154 21.0925C7.81404 21.3717 6.03154 20.8375 4.71404 19.6242C3.39654 18.4092 2.71654 16.6833 2.84904 14.8883C3.07237 11.8667 5.71737 9.49917 8.87071 9.49917H19.9165C20.6057 9.49917 21.1665 10.06 21.1665 10.7492V11.28V11.2808ZM9.49987 5.75V2.41667C9.49987 2.18667 9.68654 2 9.91654 2C10.1465 2 10.3332 2.18667 10.3332 2.41667V5.75C10.3332 5.98 10.1465 6.16667 9.91654 6.16667C9.68654 6.16667 9.49987 5.98 9.49987 5.75ZM12.044 6.39667L13.7107 3.06333C13.814 2.85667 14.0632 2.77417 14.2699 2.87667C14.4757 2.98 14.559 3.23 14.4565 3.43583L12.7899 6.76917C12.7165 6.915 12.5699 6.99917 12.4165 6.99917C12.354 6.99917 12.2907 6.985 12.2307 6.955C12.0249 6.85167 11.9415 6.6025 12.044 6.39667ZM5.37737 3.43667C5.27404 3.23083 5.35821 2.98083 5.56404 2.8775C5.76987 2.77417 6.01987 2.8575 6.12321 3.06417L7.78987 6.3975C7.89321 6.60333 7.80904 6.85333 7.60321 6.95667C7.54321 6.98667 7.47987 7.00083 7.41737 7.00083C7.26404 7.00083 7.11737 6.91667 7.04404 6.77083L5.37737 3.43667Z" fill="#226254"/>
</g>
<defs>
<clipPath id="clip0_163_44">
<rect width="20" height="20" fill="white" transform="translate(2 2)"/>
</clipPath>
</defs>
</svg>
