<svg width="24" height="24" viewBox="0 0 24 24" fill="none" xmlns="http://www.w3.org/2000/svg">
<path d="M15.1251 21.1L6.70006 12.7C6.60006 12.6 6.52906 12.4917 6.48706 12.375C6.44506 12.2584 6.4244 12.1334 6.42506 12C6.42506 11.8667 6.44573 11.7417 6.48706 11.625C6.5284 11.5084 6.5994 11.4 6.70006 11.3L15.1251 2.87502C15.3584 2.64169 15.6501 2.52502 16.0001 2.52502C16.3501 2.52502 16.6501 2.65002 16.9001 2.90002C17.1501 3.15002 17.2751 3.44169 17.2751 3.77502C17.2751 4.10836 17.1501 4.40002 16.9001 4.65002L9.55006 12L16.9001 19.35C17.1334 19.5834 17.2501 19.871 17.2501 20.213C17.2501 20.555 17.1251 20.8507 16.8751 21.1C16.6251 21.35 16.3334 21.475 16.0001 21.475C15.6667 21.475 15.3751 21.35 15.1251 21.1Z" fill="#color: #2C2C2C;"/>
</svg>
